<svg width="60" height="60" viewBox="0 0 60 60" fill="none" xmlns="http://www.w3.org/2000/svg">
  <path d="M42.5 22H17.5C16.948 22 16.5 22.447 16.5 23C16.5 23.553 16.948 24 17.5 24H42.5C43.052 24 43.5 23.553 43.5 23C43.5 22.447 43.052 22 42.5 22Z" fill="black"/>
  <path d="M17.5 16H27.5C28.052 16 28.5 15.553 28.5 15C28.5 14.447 28.052 14 27.5 14H17.5C16.948 14 16.5 14.447 16.5 15C16.5 15.553 16.948 16 17.5 16Z" fill="black"/>
  <path d="M42.5 30H17.5C16.948 30 16.5 30.447 16.5 31C16.5 31.553 16.948 32 17.5 32H42.5C43.052 32 43.5 31.553 43.5 31C43.5 30.447 43.052 30 42.5 30Z" fill="black"/>
  <path d="M42.5 38H17.5C16.948 38 16.5 38.447 16.5 39C16.5 39.553 16.948 40 17.5 40H42.5C43.052 40 43.5 39.553 43.5 39C43.5 38.447 43.052 38 42.5 38Z" fill="black"/>
  <path d="M42.5 46H17.5C16.948 46 16.5 46.447 16.5 47C16.5 47.553 16.948 48 17.5 48H42.5C43.052 48 43.5 47.553 43.5 47C43.5 46.447 43.052 46 42.5 46Z" fill="black"/>
  <path d="M38.914 0H6.5V60H53.5V14.586L38.914 0ZM39.5 3.414L50.086 14H39.5V3.414ZM8.5 58V2H37.5V16H51.5V58H8.5Z" fill="black"/>
</svg>
