<svg width="34" height="34" viewBox="0 0 34 34" fill="none" xmlns="http://www.w3.org/2000/svg">
  <path d="M16.646 24.786C16.37 24.786 16.146 24.562 16.146 24.286L16.147 13.007C16.147 12.731 16.371 12.507 16.647 12.507C16.923 12.507 17.147 12.731 17.147 13.007L17.146 24.286C17.146 24.562 16.922 24.786 16.646 24.786Z" fill="black"/>
  <path d="M16.646 24.786C16.518 24.786 16.39 24.737 16.292 24.64L11.979 20.327C11.784 20.132 11.784 19.815 11.979 19.62C12.174 19.425 12.491 19.425 12.686 19.62L16.645 23.579L20.604 19.62C20.799 19.425 21.116 19.425 21.311 19.62C21.506 19.815 21.506 20.132 21.311 20.327L16.998 24.64C16.902 24.737 16.774 24.786 16.646 24.786Z" fill="black"/>
  <path d="M27.578 33.293H5.71503C4.33703 33.293 3.21503 32.172 3.21503 30.793V2.5C3.21503 1.121 4.33703 0 5.71503 0H21.592C21.868 0 22.092 0.224 22.092 0.5C22.092 0.776 21.868 1 21.592 1H5.71503C4.88803 1 4.21503 1.673 4.21503 2.5V30.793C4.21503 31.62 4.88803 32.293 5.71503 32.293H27.578C28.405 32.293 29.078 31.62 29.078 30.793V8.704C29.078 8.428 29.302 8.204 29.578 8.204C29.854 8.204 30.078 8.428 30.078 8.704V30.794C30.078 32.172 28.957 33.293 27.578 33.293Z" fill="black"/>
  <path d="M29.578 9.20401H21.592C21.316 9.20401 21.092 8.98001 21.092 8.70401V0.71701C21.092 0.441011 21.316 0.21701 21.592 0.21701C21.868 0.21701 22.092 0.441011 22.092 0.71701V8.20301H29.578C29.854 8.20301 30.078 8.42701 30.078 8.70301C30.078 8.97901 29.855 9.20401 29.578 9.20401Z" fill="black"/>
  <path d="M29.578 9.20399C29.448 9.20399 29.318 9.15299 29.22 9.05299L21.234 0.849991C21.042 0.652991 21.046 0.334991 21.244 0.142991C21.441 -0.0500088 21.758 -0.0450088 21.951 0.152991L29.937 8.35599C30.129 8.55299 30.125 8.87099 29.927 9.06299C29.83 9.15699 29.704 9.20399 29.578 9.20399Z" fill="black"/>
</svg>
